ISO-10303-21;
HEADER;
FILE_DESCRIPTION (( 'STEP AP203' ),
    '1' );
FILE_NAME ('TTN024120-E0W.STEP',
    '2016-08-10T17:36:07',
    ( 'admin' ),
    ( '' ),
    'SwSTEP 2.0',
    'SolidWorks 2016',
    '' );
FILE_SCHEMA (( 'CONFIG_CONTROL_DESIGN' ));
ENDSEC;

DATA;
#1 = COORDINATED_UNIVERSAL_TIME_OFFSET ( 5, 0, .BEHIND. ) ;
#2 = ORIENTED_EDGE ( 'NONE', *, *, #101, .T. ) ;
#3 = LOCAL_TIME ( 13, 36, 7.000000000000000000, #69 ) ;
#4 = ADVANCED_FACE ( 'NONE', ( #90 ), #204, .T. ) ;
#5 = CONICAL_SURFACE ( 'NONE', #155, 9.500000000000000000, 0.7853981633974482800 ) ;
#6 = APPROVAL_PERSON_ORGANIZATION ( #34, #228, #167 ) ;
#7 = EDGE_LOOP ( 'NONE', ( #187, #113, #258, #28 ) ) ;
#8 = ADVANCED_FACE ( 'NONE', ( #82 ), #50, .T. ) ;
#9 = CALENDAR_DATE ( 2016, 10, 8 ) ;
#10 = CIRCLE ( 'NONE', #127, 9.250000000000000000 ) ;
#11 = PERSON_AND_ORGANIZATION_ROLE ( 'design_supplier' ) ;
#12 = FACE_OUTER_BOUND ( 'NONE', #189, .T. ) ;
#13 = COORDINATED_UNIVERSAL_TIME_OFFSET ( 5, 0, .BEHIND. ) ;
#14 = ORIENTED_EDGE ( 'NONE', *, *, #142, .T. ) ;
#15 = CALENDAR_DATE ( 2016, 10, 8 ) ;
#16 = ORIENTED_EDGE ( 'NONE', *, *, #142, .F. ) ;
#17 = VECTOR ( 'NONE', #111, 1000.000000000000100 ) ;
#18 = ORIENTED_EDGE ( 'NONE', *, *, #107, .T. ) ;
#19 = PLANE ( 'NONE',  #63 ) ;
#20 = APPROVAL ( #88, 'UNSPECIFIED' ) ;
#21 = DIRECTION ( 'NONE',  ( 1.000000000000000000, 0.0000000000000000000, -0.0000000000000000000 ) ) ;
#22 = DIRECTION ( 'NONE',  ( -0.0000000000000000000, -0.0000000000000000000, -1.000000000000000000 ) ) ;
#23 = ORIENTED_EDGE ( 'NONE', *, *, #97, .T. ) ;
#24 = DIRECTION ( 'NONE',  ( 1.000000000000000000, 0.0000000000000000000, 0.0000000000000000000 ) ) ;
#25 = CARTESIAN_POINT ( 'NONE',  ( 0.0000000000000000000, 0.0000000000000000000, 3.000000000000000000 ) ) ;
#26 = AXIS2_PLACEMENT_3D ( 'NONE', #137, #163, #147 ) ;
#27 = CARTESIAN_POINT ( 'NONE',  ( 0.0000000000000000000, 0.0000000000000000000, 3.000000000000000000 ) ) ;
#28 = ORIENTED_EDGE ( 'NONE', *, *, #107, .F. ) ;
#29 = CONICAL_SURFACE ( 'NONE', #41, 9.500000000000000000, 0.7853981633974482800 ) ;
#30 = DIRECTION ( 'NONE',  ( -1.000000000000000000, 0.0000000000000000000, 0.0000000000000000000 ) ) ;
#31 = CIRCLE ( 'NONE', #135, 9.250000000000005300 ) ;
#32 = APPROVAL_DATE_TIME ( #211, #228 ) ;
#33 = CARTESIAN_POINT ( 'NONE',  ( 0.0000000000000000000, 0.0000000000000000000, -3.000000000000000000 ) ) ;
#34 = PERSON_AND_ORGANIZATION ( #264, #117 ) ;
#35 = CC_DESIGN_PERSON_AND_ORGANIZATION_ASSIGNMENT ( #267, #126, ( #98 ) ) ;
#36 = CALENDAR_DATE ( 2016, 10, 8 ) ;
#37 = CLOSED_SHELL ( 'NONE', ( #179, #4, #8, #215, #139, #45, #124, #234 ) ) ;
#38 = CARTESIAN_POINT ( 'NONE',  ( 9.250000000000005300, 1.132798289211302300E-015, 3.000000000000000000 ) ) ;
#39 = DIRECTION ( 'NONE',  ( 0.7071067811865474600, 0.0000000000000000000, 0.7071067811865474600 ) ) ;
#40 = PRODUCT_DEFINITION ( 'UNKNOWN', '', #238, #245 ) ;
#41 = AXIS2_PLACEMENT_3D ( 'NONE', #129, #133, #132 ) ;
#42 = PERSON_AND_ORGANIZATION ( #264, #117 ) ;
#43 = COORDINATED_UNIVERSAL_TIME_OFFSET ( 5, 0, .BEHIND. ) ;
#44 = CARTESIAN_POINT ( 'NONE',  ( 9.500000000000000000, 1.163414459189985500E-015, 3.000000000000000000 ) ) ;
#45 = ADVANCED_FACE ( 'NONE', ( #224 ), #19, .F. ) ;
#46 = PERSON_AND_ORGANIZATION ( #264, #117 ) ;
#47 = AXIS2_PLACEMENT_3D ( 'NONE', #151, #150, #146 ) ;
#48 = AXIS2_PLACEMENT_3D ( 'NONE', #240, #115, #122 ) ;
#49 = DIRECTION ( 'NONE',  ( -0.0000000000000000000, -0.0000000000000000000, -1.000000000000000000 ) ) ;
#50 = CYLINDRICAL_SURFACE ( 'NONE', #202, 9.500000000000000000 ) ;
#51 = LINE ( 'NONE', #38, #237 ) ;
#52 = APPROVAL_DATE_TIME ( #125, #244 ) ;
#53 = DIRECTION ( 'NONE',  ( -0.7071067811865451300, 0.0000000000000000000, -0.7071067811865500200 ) ) ;
#54 = CARTESIAN_POINT ( 'NONE',  ( 0.0000000000000000000, 0.0000000000000000000, -2.750000000000000000 ) ) ;
#55 = APPROVAL_PERSON_ORGANIZATION ( #174, #244, #221 ) ;
#56 = CIRCLE ( 'NONE', #181, 9.250000000000005300 ) ;
#57 = AXIS2_PLACEMENT_3D ( 'NONE', #172, #162, #166 ) ;
#58 = CARTESIAN_POINT ( 'NONE',  ( -9.500000000000000000, 0.0000000000000000000, -2.750000000000000000 ) ) ;
#59 = EDGE_CURVE ( 'NONE', #220, #200, #10, .T. ) ;
#60 = DIRECTION ( 'NONE',  ( -0.0000000000000000000, -0.0000000000000000000, -1.000000000000000000 ) ) ;
#61 = CARTESIAN_POINT ( 'NONE',  ( -9.500000000000000000, 0.0000000000000000000, 2.750000000000003100 ) ) ;
#62 = CARTESIAN_POINT ( 'NONE',  ( 0.0000000000000000000, 0.0000000000000000000, 0.0000000000000000000 ) ) ;
#63 = AXIS2_PLACEMENT_3D ( 'NONE', #33, #105, #21 ) ;
#64 = AXIS2_PLACEMENT_3D ( 'NONE', #62, #71, #186 ) ;
#65 = CARTESIAN_POINT ( 'NONE',  ( 9.500000000000000000, 0.0000000000000000000, -2.750000000000000000 ) ) ;
#66 = ORIENTED_EDGE ( 'NONE', *, *, #102, .T. ) ;
#67 = EDGE_CURVE ( 'NONE', #230, #169, #31, .T. ) ;
#68 = APPROVAL_STATUS ( 'not_yet_approved' ) ;
#69 = COORDINATED_UNIVERSAL_TIME_OFFSET ( 5, 0, .BEHIND. ) ;
#70 = LINE ( 'NONE', #128, #17 ) ;
#71 = DIRECTION ( 'NONE',  ( 0.0000000000000000000, 0.0000000000000000000, 1.000000000000000000 ) ) ;
#72 = APPLICATION_CONTEXT ( 'configuration controlled 3d designs of mechanical parts and assemblies' ) ;
#73 = LOCAL_TIME ( 13, 36, 7.000000000000000000, #1 ) ;
#74 = DATE_AND_TIME ( #103, #254 ) ;
#75 =( NAMED_UNIT ( * ) PLANE_ANGLE_UNIT ( ) SI_UNIT ( $, .RADIAN. ) );
#76 =( NAMED_UNIT ( * ) SI_UNIT ( $, .STERADIAN. ) SOLID_ANGLE_UNIT ( ) );
#77 = AXIS2_PLACEMENT_3D ( 'NONE', #159, #156, #154 ) ;
#78 = PERSON_AND_ORGANIZATION_ROLE ( 'creator' ) ;
#79 = DATE_TIME_ROLE ( 'creation_date' ) ;
#80 = EDGE_LOOP ( 'NONE', ( #217, #180, #18, #273 ) ) ;
#81 = CC_DESIGN_APPROVAL ( #20, ( #40 ) ) ;
#82 = FACE_OUTER_BOUND ( 'NONE', #251, .T. ) ;
#83 = DIRECTION ( 'NONE',  ( 1.000000000000000000, 0.0000000000000000000, 0.0000000000000000000 ) ) ;
#84 = APPLICATION_CONTEXT ( 'configuration controlled 3d designs of mechanical parts and assemblies' ) ;
#85 = APPROVAL_DATE_TIME ( #74, #20 ) ;
#86 = DIRECTION ( 'NONE',  ( -0.0000000000000000000, -0.0000000000000000000, 1.000000000000000000 ) ) ;
#87 = APPLICATION_PROTOCOL_DEFINITION ( 'international standard', 'config_control_design', 1994, #84 ) ;
#88 = APPROVAL_STATUS ( 'not_yet_approved' ) ;
#89 = DIRECTION ( 'NONE',  ( -1.000000000000000000, 0.0000000000000000000, 0.0000000000000000000 ) ) ;
#90 = FACE_OUTER_BOUND ( 'NONE', #7, .T. ) ;
#91 = APPROVAL_PERSON_ORGANIZATION ( #99, #20, #241 ) ;
#92 = EDGE_CURVE ( 'NONE', #169, #230, #56, .T. ) ;
#93 = COORDINATED_UNIVERSAL_TIME_OFFSET ( 5, 0, .BEHIND. ) ;
#94 = EDGE_CURVE ( 'NONE', #230, #206, #51, .T. ) ;
#95 = AXIS2_PLACEMENT_3D ( 'NONE', #118, #182, #183 ) ;
#96 = ORIENTED_EDGE ( 'NONE', *, *, #97, .F. ) ;
#97 = EDGE_CURVE ( 'NONE', #200, #100, #70, .T. ) ;
#98 = PRODUCT ( 'TTN024120-E0W', 'TTN024120-E0W', '', ( #256 ) ) ;
#99 = PERSON_AND_ORGANIZATION ( #264, #117 ) ;
#100 = VERTEX_POINT ( 'NONE', #58 ) ;
#101 = EDGE_CURVE ( 'NONE', #259, #100, #173, .T. ) ;
#102 = EDGE_CURVE ( 'NONE', #206, #185, #213, .T. ) ;
#103 = CALENDAR_DATE ( 2016, 10, 8 ) ;
#104 = ORIENTED_EDGE ( 'NONE', *, *, #161, .T. ) ;
#105 = DIRECTION ( 'NONE',  ( 0.0000000000000000000, 0.0000000000000000000, 1.000000000000000000 ) ) ;
#106 = MANIFOLD_SOLID_BREP ( 'TTN024143-1-solid1', #37 ) ;
#107 = EDGE_CURVE ( 'NONE', #169, #259, #223, .T. ) ;
#108 = DIRECTION ( 'NONE',  ( 1.000000000000000000, 0.0000000000000000000, 0.0000000000000000000 ) ) ;
#109 = DIRECTION ( 'NONE',  ( 0.0000000000000000000, 0.0000000000000000000, -1.000000000000000000 ) ) ;
#110 = CARTESIAN_POINT ( 'NONE',  ( 0.0000000000000000000, 0.0000000000000000000, 3.000000000000000000 ) ) ;
#111 = DIRECTION ( 'NONE',  ( -0.7071067811865474600, 8.659560562354932900E-017, 0.7071067811865474600 ) ) ;
#112 = ORIENTED_EDGE ( 'NONE', *, *, #67, .T. ) ;
#113 = ORIENTED_EDGE ( 'NONE', *, *, #94, .T. ) ;
#114 = PLANE ( 'NONE',  #95 ) ;
#115 = DIRECTION ( 'NONE',  ( 0.0000000000000000000, 0.0000000000000000000, -1.000000000000000000 ) ) ;
#116 = DATE_AND_TIME ( #36, #260 ) ;
#117 = ORGANIZATION ( 'UNSPECIFIED', 'UNSPECIFIED', '' ) ;
#118 = CARTESIAN_POINT ( 'NONE',  ( 0.0000000000000000000, 0.0000000000000000000, 3.000000000000000000 ) ) ;
#119 = EDGE_CURVE ( 'NONE', #100, #185, #216, .T. ) ;
#120 = DIRECTION ( 'NONE',  ( 0.0000000000000000000, 0.0000000000000000000, 1.000000000000000000 ) ) ;
#121 = AXIS2_PLACEMENT_3D ( 'NONE', #27, #109, #89 ) ;
#122 = DIRECTION ( 'NONE',  ( -1.000000000000000000, 0.0000000000000000000, 0.0000000000000000000 ) ) ;
#123 = EDGE_CURVE ( 'NONE', #220, #185, #195, .T. ) ;
#124 = ADVANCED_FACE ( 'NONE', ( #247 ), #210, .T. ) ;
#125 = DATE_AND_TIME ( #9, #3 ) ;
#126 = PERSON_AND_ORGANIZATION_ROLE ( 'design_owner' ) ;
#127 = AXIS2_PLACEMENT_3D ( 'NONE', #207, #22, #24 ) ;
#128 = CARTESIAN_POINT ( 'NONE',  ( -9.500000000000000000, 1.163414459189985500E-015, -2.750000000000000000 ) ) ;
#129 = CARTESIAN_POINT ( 'NONE',  ( 0.0000000000000000000, 0.0000000000000000000, -2.750000000000000000 ) ) ;
#130 =( LENGTH_UNIT ( ) NAMED_UNIT ( * ) SI_UNIT ( .MILLI., .METRE. ) );
#131 = CARTESIAN_POINT ( 'NONE',  ( -9.500000000000000000, 0.0000000000000000000, 3.000000000000000000 ) ) ;
#132 = DIRECTION ( 'NONE',  ( 1.000000000000000000, 0.0000000000000000000, 0.0000000000000000000 ) ) ;
#133 = DIRECTION ( 'NONE',  ( -0.0000000000000000000, -0.0000000000000000000, 1.000000000000000000 ) ) ;
#134 = CARTESIAN_POINT ( 'NONE',  ( 9.250000000000000000, 0.0000000000000000000, -3.000000000000000000 ) ) ;
#135 = AXIS2_PLACEMENT_3D ( 'NONE', #263, #262, #269 ) ;
#136 = CARTESIAN_POINT ( 'NONE',  ( 9.250000000000005300, 1.148106374200643800E-015, 3.000000000000000000 ) ) ;
#137 = CARTESIAN_POINT ( 'NONE',  ( 0.0000000000000000000, 0.0000000000000000000, 3.000000000000000000 ) ) ;
#138 = CARTESIAN_POINT ( 'NONE',  ( 9.500000000000000000, 1.163414459189985500E-015, 2.750000000000003100 ) ) ;
#139 = ADVANCED_FACE ( 'NONE', ( #191 ), #114, .T. ) ;
#140 = CARTESIAN_POINT ( 'NONE',  ( -9.250000000000000000, 1.148106374200643600E-015, -3.000000000000000000 ) ) ;
#141 = PRODUCT_DEFINITION_SHAPE ( 'NONE', 'NONE',  #40 ) ;
#142 = EDGE_CURVE ( 'NONE', #185, #100, #208, .T. ) ;
#143 = CIRCLE ( 'NONE', #47, 9.500000000000000000 ) ;
#144 = SHAPE_DEFINITION_REPRESENTATION ( #141, #212 ) ;
#145 = CARTESIAN_POINT ( 'NONE',  ( 9.500000000000000000, 1.163414459189985500E-015, -2.750000000000000000 ) ) ;
#146 = DIRECTION ( 'NONE',  ( 1.000000000000000000, 0.0000000000000000000, 0.0000000000000000000 ) ) ;
#147 = DIRECTION ( 'NONE',  ( -1.000000000000000000, 0.0000000000000000000, 0.0000000000000000000 ) ) ;
#148 = EDGE_CURVE ( 'NONE', #259, #206, #197, .T. ) ;
#149 = VECTOR ( 'NONE', #39, 1000.000000000000100 ) ;
#150 = DIRECTION ( 'NONE',  ( 0.0000000000000000000, 0.0000000000000000000, -1.000000000000000000 ) ) ;
#151 = CARTESIAN_POINT ( 'NONE',  ( 0.0000000000000000000, 0.0000000000000000000, 2.750000000000003100 ) ) ;
#152 = DIRECTION ( 'NONE',  ( 1.000000000000000000, 0.0000000000000000000, 0.0000000000000000000 ) ) ;
#153 = CARTESIAN_POINT ( 'NONE',  ( 0.0000000000000000000, 0.0000000000000000000, -2.750000000000000000 ) ) ;
#154 = DIRECTION ( 'NONE',  ( 1.000000000000000000, 0.0000000000000000000, 0.0000000000000000000 ) ) ;
#155 = AXIS2_PLACEMENT_3D ( 'NONE', #153, #160, #152 ) ;
#156 = DIRECTION ( 'NONE',  ( -0.0000000000000000000, -0.0000000000000000000, -1.000000000000000000 ) ) ;
#157 = CALENDAR_DATE ( 2016, 10, 8 ) ;
#158 = ORIENTED_EDGE ( 'NONE', *, *, #102, .F. ) ;
#159 = CARTESIAN_POINT ( 'NONE',  ( 0.0000000000000000000, 0.0000000000000000000, -3.000000000000000000 ) ) ;
#160 = DIRECTION ( 'NONE',  ( -0.0000000000000000000, -0.0000000000000000000, 1.000000000000000000 ) ) ;
#161 = EDGE_CURVE ( 'NONE', #200, #220, #190, .T. ) ;
#162 = DIRECTION ( 'NONE',  ( 0.0000000000000000000, 0.0000000000000000000, -1.000000000000000000 ) ) ;
#163 = DIRECTION ( 'NONE',  ( -0.0000000000000000000, -0.0000000000000000000, -1.000000000000000000 ) ) ;
#164 = CYLINDRICAL_SURFACE ( 'NONE', #26, 9.500000000000000000 ) ;
#165 = EDGE_CURVE ( 'NONE', #206, #259, #143, .T. ) ;
#166 = DIRECTION ( 'NONE',  ( 1.000000000000000000, 0.0000000000000000000, 0.0000000000000000000 ) ) ;
#167 = APPROVAL_ROLE ( '' ) ;
#168 = CARTESIAN_POINT ( 'NONE',  ( -9.250000000000005300, 0.0000000000000000000, 3.000000000000000000 ) ) ;
#169 = VERTEX_POINT ( 'NONE', #168 ) ;
#170 = ORIENTED_EDGE ( 'NONE', *, *, #119, .T. ) ;
#171 = PERSON_AND_ORGANIZATION ( #264, #117 ) ;
#172 = CARTESIAN_POINT ( 'NONE',  ( 0.0000000000000000000, 0.0000000000000000000, 2.750000000000003100 ) ) ;
#173 = LINE ( 'NONE', #131, #226 ) ;
#174 = PERSON_AND_ORGANIZATION ( #264, #117 ) ;
#175 = DIRECTION ( 'NONE',  ( 1.000000000000000000, 0.0000000000000000000, 0.0000000000000000000 ) ) ;
#176 = DIRECTION ( 'NONE',  ( -0.0000000000000000000, -0.0000000000000000000, 1.000000000000000000 ) ) ;
#177 = CARTESIAN_POINT ( 'NONE',  ( 0.0000000000000000000, 0.0000000000000000000, -2.750000000000000000 ) ) ;
#178 = ORIENTED_EDGE ( 'NONE', *, *, #92, .T. ) ;
#179 = ADVANCED_FACE ( 'NONE', ( #242 ), #5, .T. ) ;
#180 = ORIENTED_EDGE ( 'NONE', *, *, #92, .F. ) ;
#181 = AXIS2_PLACEMENT_3D ( 'NONE', #110, #120, #83 ) ;
#182 = DIRECTION ( 'NONE',  ( 0.0000000000000000000, 0.0000000000000000000, 1.000000000000000000 ) ) ;
#183 = DIRECTION ( 'NONE',  ( 1.000000000000000000, 0.0000000000000000000, -0.0000000000000000000 ) ) ;
#184 = FACE_OUTER_BOUND ( 'NONE', #196, .T. ) ;
#185 = VERTEX_POINT ( 'NONE', #145 ) ;
#186 = DIRECTION ( 'NONE',  ( 1.000000000000000000, 0.0000000000000000000, 0.0000000000000000000 ) ) ;
#187 = ORIENTED_EDGE ( 'NONE', *, *, #67, .F. ) ;
#188 =( GEOMETRIC_REPRESENTATION_CONTEXT ( 3 ) GLOBAL_UNCERTAINTY_ASSIGNED_CONTEXT ( ( #209 ) ) GLOBAL_UNIT_ASSIGNED_CONTEXT ( ( #130, #75, #76 ) ) REPRESENTATION_CONTEXT ( 'NONE', 'WORKASPACE' ) );
#189 = EDGE_LOOP ( 'NONE', ( #158, #193, #2, #170 ) ) ;
#190 = CIRCLE ( 'NONE', #77, 9.250000000000000000 ) ;
#191 = FACE_OUTER_BOUND ( 'NONE', #192, .T. ) ;
#192 = EDGE_LOOP ( 'NONE', ( #178, #112 ) ) ;
#193 = ORIENTED_EDGE ( 'NONE', *, *, #165, .T. ) ;
#194 = EDGE_LOOP ( 'NONE', ( #201, #23, #16, #203 ) ) ;
#195 = LINE ( 'NONE', #65, #149 ) ;
#196 = EDGE_LOOP ( 'NONE', ( #96, #231, #249, #218 ) ) ;
#197 = CIRCLE ( 'NONE', #57, 9.500000000000000000 ) ;
#198 = ORIENTED_EDGE ( 'NONE', *, *, #148, .T. ) ;
#199 = LOCAL_TIME ( 13, 36, 7.000000000000000000, #13 ) ;
#200 = VERTEX_POINT ( 'NONE', #140 ) ;
#201 = ORIENTED_EDGE ( 'NONE', *, *, #161, .F. ) ;
#202 = AXIS2_PLACEMENT_3D ( 'NONE', #25, #227, #30 ) ;
#203 = ORIENTED_EDGE ( 'NONE', *, *, #123, .F. ) ;
#204 = CONICAL_SURFACE ( 'NONE', #121, 9.250000000000005300, 0.7853981633974447300 ) ;
#205 = VECTOR ( 'NONE', #60, 1000.000000000000000 ) ;
#206 = VERTEX_POINT ( 'NONE', #138 ) ;
#207 = CARTESIAN_POINT ( 'NONE',  ( 0.0000000000000000000, 0.0000000000000000000, -3.000000000000000000 ) ) ;
#208 = CIRCLE ( 'NONE', #236, 9.500000000000000000 ) ;
#209 = UNCERTAINTY_MEASURE_WITH_UNIT (LENGTH_MEASURE( 1.000000000000000100E-005 ), #130, 'distance_accuracy_value', 'NONE');
#210 = CONICAL_SURFACE ( 'NONE', #48, 9.250000000000005300, 0.7853981633974447300 ) ;
#211 = DATE_AND_TIME ( #15, #199 ) ;
#212 = ADVANCED_BREP_SHAPE_REPRESENTATION ( 'TTN024120-E0W', ( #106, #64 ), #188 ) ;
#213 = LINE ( 'NONE', #44, #205 ) ;
#214 = ORIENTED_EDGE ( 'NONE', *, *, #59, .T. ) ;
#215 = ADVANCED_FACE ( 'NONE', ( #12 ), #164, .T. ) ;
#216 = CIRCLE ( 'NONE', #270, 9.500000000000000000 ) ;
#217 = ORIENTED_EDGE ( 'NONE', *, *, #94, .F. ) ;
#218 = ORIENTED_EDGE ( 'NONE', *, *, #119, .F. ) ;
#219 = PERSON_AND_ORGANIZATION ( #264, #117 ) ;
#220 = VERTEX_POINT ( 'NONE', #134 ) ;
#221 = APPROVAL_ROLE ( '' ) ;
#222 = PERSON_AND_ORGANIZATION_ROLE ( 'creator' ) ;
#223 = LINE ( 'NONE', #235, #246 ) ;
#224 = FACE_OUTER_BOUND ( 'NONE', #265, .T. ) ;
#225 = CC_DESIGN_PERSON_AND_ORGANIZATION_ASSIGNMENT ( #42, #253, ( #252 ) ) ;
#226 = VECTOR ( 'NONE', #49, 1000.000000000000000 ) ;
#227 = DIRECTION ( 'NONE',  ( -0.0000000000000000000, -0.0000000000000000000, -1.000000000000000000 ) ) ;
#228 = APPROVAL ( #248, 'UNSPECIFIED' ) ;
#229 = ORIENTED_EDGE ( 'NONE', *, *, #101, .F. ) ;
#230 = VERTEX_POINT ( 'NONE', #136 ) ;
#231 = ORIENTED_EDGE ( 'NONE', *, *, #59, .F. ) ;
#232 = CC_DESIGN_APPROVAL ( #228, ( #252 ) ) ;
#233 = CC_DESIGN_SECURITY_CLASSIFICATION ( #252, ( #238 ) ) ;
#234 = ADVANCED_FACE ( 'NONE', ( #184 ), #29, .T. ) ;
#235 = CARTESIAN_POINT ( 'NONE',  ( -9.250000000000005300, 0.0000000000000000000, 3.000000000000000000 ) ) ;
#236 = AXIS2_PLACEMENT_3D ( 'NONE', #177, #176, #175 ) ;
#237 = VECTOR ( 'NONE', #274, 1000.000000000000100 ) ;
#238 = PRODUCT_DEFINITION_FORMATION_WITH_SPECIFIED_SOURCE ( 'ANY', '', #98, .NOT_KNOWN. ) ;
#239 = CC_DESIGN_DATE_AND_TIME_ASSIGNMENT ( #116, #250, ( #252 ) ) ;
#240 = CARTESIAN_POINT ( 'NONE',  ( 0.0000000000000000000, 0.0000000000000000000, 3.000000000000000000 ) ) ;
#241 = APPROVAL_ROLE ( '' ) ;
#242 = FACE_OUTER_BOUND ( 'NONE', #194, .T. ) ;
#243 = CC_DESIGN_PERSON_AND_ORGANIZATION_ASSIGNMENT ( #219, #222, ( #238 ) ) ;
#244 = APPROVAL ( #68, 'UNSPECIFIED' ) ;
#245 = DESIGN_CONTEXT ( 'detailed design', #84, 'design' ) ;
#246 = VECTOR ( 'NONE', #53, 1000.000000000000100 ) ;
#247 = FACE_OUTER_BOUND ( 'NONE', #80, .T. ) ;
#248 = APPROVAL_STATUS ( 'not_yet_approved' ) ;
#249 = ORIENTED_EDGE ( 'NONE', *, *, #123, .T. ) ;
#250 = DATE_TIME_ROLE ( 'classification_date' ) ;
#251 = EDGE_LOOP ( 'NONE', ( #198, #66, #14, #229 ) ) ;
#252 = SECURITY_CLASSIFICATION ( '', '', #271 ) ;
#253 = PERSON_AND_ORGANIZATION_ROLE ( 'classification_officer' ) ;
#254 = LOCAL_TIME ( 13, 36, 7.000000000000000000, #93 ) ;
#255 = DATE_AND_TIME ( #157, #73 ) ;
#256 = MECHANICAL_CONTEXT ( 'NONE', #72, 'mechanical' ) ;
#257 = PRODUCT_RELATED_PRODUCT_CATEGORY ( 'detail', '', ( #98 ) ) ;
#258 = ORIENTED_EDGE ( 'NONE', *, *, #148, .F. ) ;
#259 = VERTEX_POINT ( 'NONE', #61 ) ;
#260 = LOCAL_TIME ( 13, 36, 7.000000000000000000, #43 ) ;
#261 = APPLICATION_PROTOCOL_DEFINITION ( 'international standard', 'config_control_design', 1994, #72 ) ;
#262 = DIRECTION ( 'NONE',  ( 0.0000000000000000000, 0.0000000000000000000, 1.000000000000000000 ) ) ;
#263 = CARTESIAN_POINT ( 'NONE',  ( 0.0000000000000000000, 0.0000000000000000000, 3.000000000000000000 ) ) ;
#264 = PERSON ( 'UNSPECIFIED', 'UNSPECIFIED', 'UNSPECIFIED', ('UNSPECIFIED'), ('UNSPECIFIED'), ('UNSPECIFIED') ) ;
#265 = EDGE_LOOP ( 'NONE', ( #214, #104 ) ) ;
#266 = CC_DESIGN_APPROVAL ( #244, ( #238 ) ) ;
#267 = PERSON_AND_ORGANIZATION ( #264, #117 ) ;
#268 = CC_DESIGN_PERSON_AND_ORGANIZATION_ASSIGNMENT ( #46, #11, ( #238 ) ) ;
#269 = DIRECTION ( 'NONE',  ( 1.000000000000000000, 0.0000000000000000000, 0.0000000000000000000 ) ) ;
#270 = AXIS2_PLACEMENT_3D ( 'NONE', #54, #86, #108 ) ;
#271 = SECURITY_CLASSIFICATION_LEVEL ( 'unclassified' ) ;
#272 = CC_DESIGN_DATE_AND_TIME_ASSIGNMENT ( #255, #79, ( #40 ) ) ;
#273 = ORIENTED_EDGE ( 'NONE', *, *, #165, .F. ) ;
#274 = DIRECTION ( 'NONE',  ( 0.7071067811865451300, 8.659560562354904500E-017, -0.7071067811865500200 ) ) ;
#275 = CC_DESIGN_PERSON_AND_ORGANIZATION_ASSIGNMENT ( #171, #78, ( #40 ) ) ;
ENDSEC;
END-ISO-10303-21;
